Coordinates
version=1
nRows=7
nColumns=46
inDegrees=yes

Units are S.I. units (second, meters, Newtons, ...)
Angles are in degrees.

endheader
time	pelvis_tilt	pelvis_list	pelvis_rotation	pelvis_tx	pelvis_ty	pelvis_tz	bb_angle	bb_tx	bb_ty	bb_tz	hip_flexion_r	hip_adduction_r	hip_rotation_r	knee_angle_r	knee_angle_r_beta	ankle_angle_r	subtalar_angle_r	mtp_angle_r	crank_angle_r	hip_flexion_l	hip_adduction_l	hip_rotation_l	knee_angle_l	knee_angle_l_beta	ankle_angle_l	subtalar_angle_l	mtp_angle_l	crank_angle_l	lumbar_extension	lumbar_bending	lumbar_rotation	arm_flex_r	arm_add_r	arm_rot_r	elbow_flex_r	pro_sup_r	wrist_flex_r	wrist_dev_r	arm_flex_l	arm_add_l	arm_rot_l	elbow_flex_l	pro_sup_l	wrist_flex_l	wrist_dev_l
      5.00000000	     21.59256424	     13.67010880	     23.03252163	      0.27404616	      1.13321323	     -0.26408479	      0.00000000	      0.50000000	      0.00000000	      0.25000000	    -18.23507687	    -19.21856822	    -39.76189820	     43.75582423	      0.76368320	    -27.55314616	      5.10431553	      0.00000000	      0.00000000	     47.48536157	     12.77854736	     10.08983025	    117.18064329	      2.04518804	      1.78850899	      6.44689674	      0.00000000	      0.00000000	    -89.89246861	     14.60223429	    -15.01917071	     86.29618919	     -6.64075739	     80.67148899	     16.47928449	     51.38592070	      0.00000000	      0.00000000	     88.40987224	    -23.09091744	     72.68993764	     43.52451634	     48.99305128	      0.00000000	      0.00000000
      5.00500000	     21.54388200	     14.57002390	     23.40206290	      0.27227010	      1.13162948	     -0.26455825	      0.00000000	      0.50000000	      0.00000000	      0.25000000	    -18.11620794	    -20.51609953	    -39.75428457	     46.80256219	      0.81685881	    -25.77999549	      4.04594771	      0.00000000	      0.00000000	     47.09437404	     14.42345727	      9.77788139	    116.21875147	      2.02839987	      3.43644879	      6.57183494	      0.00000000	      0.00000000	    -89.89351287	     14.66363485	    -15.80421507	     86.28529981	     -6.81661779	     80.87733793	     16.46721299	     51.59062699	      0.00000000	      0.00000000	     88.45461543	    -22.84371639	     72.32572240	     43.56619883	     48.93560088	      0.00000000	      0.00000000
      5.01000000	     21.55893287	     15.35020015	     23.89395641	      0.27046703	      1.13006469	     -0.26522251	      0.00000000	      0.50000000	      0.00000000	      0.25000000	    -18.05485414	    -21.52420041	    -39.74295084	     49.72353594	      0.86783942	    -23.98203485	      2.75865063	      0.00000000	      0.00000000	     46.38241918	     16.02919136	      9.72726894	    115.10556862	      2.00897116	      5.36919079	      6.33072493	      0.00000000	      0.00000000	    -89.89619306	     14.92173841	    -16.53009698	     86.31585720	     -6.90086709	     81.10270372	     16.43996495	     51.82734014	      0.00000000	      0.00000000	     88.42346385	    -22.76186087	     71.98546899	     43.67423026	     48.89191173	      0.00000000	      0.00000000
      5.01500000	     21.63174254	     15.99106991	     24.40086794	      0.26868776	      1.12836127	     -0.26589047	      0.00000000	      0.50000000	      0.00000000	      0.25000000	    -17.92426467	    -22.37673411	    -39.71703211	     52.70342647	      0.91984832	    -22.33344478	      1.12325412	      0.00000000	      0.00000000	     45.43464688	     17.49771561	      9.91707735	    113.86729842	      1.98735927	      7.47391865	      5.99389188	      0.00000000	      0.00000000	    -89.90012692	     15.20744437	    -17.06092974	     86.28906424	     -6.98750282	     81.23532641	     16.34637596	     51.96835914	      0.00000000	      0.00000000	     88.38575078	    -22.66659411	     71.81619665	     43.81155010	     48.88158676	      0.00000000	      0.00000000
      5.02000000	     21.62389797	     16.91470315	     24.88915741	      0.26688389	      1.12670334	     -0.26657126	      0.00000000	      0.50000000	      0.00000000	      0.25000000	    -17.80059062	    -23.64004147	    -39.69959372	     55.84295155	      0.97464337	    -20.92476201	     -0.28697205	      0.00000000	      0.00000000	     44.28296686	     19.18989467	      9.96564530	    112.33456721	      1.96060806	      9.53105476	      5.56053882	      0.00000000	      0.00000000	    -89.90115993	     15.42459859	    -18.04790158	     86.28836101	     -6.94605563	     81.45215856	     16.27121827	     52.21054600	      0.00000000	      0.00000000	     88.35316279	    -22.75272195	     71.51778464	     44.04408713	     48.86638739	      0.00000000	      0.00000000
      5.02500000	     21.75187435	     17.57136268	     25.37388495	      0.26520609	      1.12500328	     -0.26731608	      0.00000000	      0.50000000	      0.00000000	      0.25000000	    -17.67911408	    -24.54602481	    -39.65670655	     58.84554862	      1.02704857	    -19.81339744	     -1.68251058	      0.00000000	      0.00000000	     42.92367353	     20.56541431	     10.31021406	    110.74981610	      1.93294894	     11.47724670	      5.00082352	      0.00000000	      0.00000000	    -89.90634128	     15.71783995	    -18.66757424	     86.26303177	     -7.02978582	     81.55691756	     16.05391759	     52.33957198	      0.00000000	      0.00000000	     88.25709075	    -22.77569229	     71.35767843	     44.25029070	     48.87185614	      0.00000000	      0.00000000
      5.03000000	     21.79736183	     18.48553283	     25.86065676	      0.26356674	      1.12335088	     -0.26822622	      0.00000000	      0.50000000	      0.00000000	      0.25000000	    -17.62660836	    -25.84681017	    -39.62800259	     61.93373707	      1.08094763	    -18.31066999	     -2.43073978	      0.00000000	      0.00000000	     41.40186411	     22.25027443	     10.56932927	    108.93353533	      1.90124886	     13.05822518	      3.95418537	      0.00000000	      0.00000000	    -89.90839838	     16.06724055	    -19.93997863	     86.32400070	     -6.44260544	     82.03906963	     15.47237787	     53.17954259	      0.00000000	      0.00000000	     88.00431622	    -23.68639980	     70.70776384	     45.47277678	     48.96065961	      0.00000000	      0.00000000
